<svg width="20" height="20" viewBox="0 0 20 20" fill="none" xmlns="http://www.w3.org/2000/svg">
<path d="M14.5 12C16.16 12 17.5 13.34 17.5 15C17.5 16.66 16.16 18 14.5 18C12.84 18 11.5 16.66 11.5 15C11.5 14.76 11.53 14.54 11.59 14.31L7.21 12.01C6.66 12.62 5.88 13 5 13C3.34 13 2 11.66 2 10C2 8.34 3.34 7 5 7C5.88 7 6.66 7.39 7.21 7.99L11.59 5.69C11.53 5.46 11.5 5.24 11.5 5C11.5 3.34 12.84 2 14.5 2C16.16 2 17.5 3.34 17.5 5C17.5 6.66 16.16 8 14.5 8C13.62 8 12.84 7.61 12.29 7.01L7.91 9.31C8.03112 9.76203 8.03112 10.238 7.91 10.69L12.29 12.99C12.84 12.38 13.62 12 14.5 12V12Z" fill="#B8B8B8"/>
</svg>
