<svg width="20" height="20" viewBox="0 0 20 20" fill="none" xmlns="http://www.w3.org/2000/svg">
<path d="M18.94 4.45999C18.45 5.18999 17.83 5.83999 17.11 6.35999C17.12 6.50999 17.12 6.66999 17.12 6.82999C17.12 11.68 13.43 17.27 6.69 17.27C4.62 17.27 2.69 16.66 1.06 15.62C1.35 15.65 1.64 15.67 1.94 15.67C3.66 15.67 5.24 15.08 6.49 14.1C5.72534 14.0842 4.98472 13.8299 4.37157 13.3728C3.75843 12.9156 3.30338 12.2783 3.07 11.55C3.29 11.59 3.52 11.62 3.76 11.62C4.09 11.62 4.42 11.57 4.72 11.49C3.8906 11.3197 3.14528 10.8687 2.60972 10.2129C2.07415 9.5571 1.78111 8.73668 1.78 7.88999V7.84999C2.28 8.11999 2.84 8.28999 3.44 8.30999C2.9378 7.97313 2.52636 7.51769 2.24206 6.98398C1.95776 6.45026 1.80936 5.85471 1.81 5.24999C1.81 4.57999 1.99 3.94999 2.31 3.40999C4.12 5.62999 6.82 7.08999 9.87 7.23999C9.81 6.96999 9.77 6.68999 9.77 6.39999C9.77265 5.42838 10.1605 4.49747 10.8484 3.81137C11.5364 3.12527 12.4684 2.73999 13.44 2.73999C14.5 2.73999 15.45 3.17999 16.12 3.89999C16.95 3.72999 17.74 3.42999 18.45 3.00999C18.17 3.85999 17.59 4.57999 16.83 5.02999C17.5586 4.95035 18.2704 4.75806 18.94 4.45999V4.45999Z" fill="#B8B8B8"/>
</svg>
